<svg id="fi_13132398" enable-background="new -223 25 512 512" height="512" viewBox="-223 25 512 512" width="512" xmlns="http://www.w3.org/2000/svg" xmlns:cc="http://creativecommons.org/ns#" xmlns:dc="http://purl.org/dc/elements/1.1/" xmlns:inkscape="http://www.inkscape.org/namespaces/inkscape" xmlns:rdf="http://www.w3.org/1999/02/22-rdf-syntax-ns#" xmlns:sodipodi="http://sodipodi.sourceforge.net/DTD/sodipodi-0.dtd" xmlns:svg="http://www.w3.org/2000/svg"><g><path d="m228 113.6c7.8 7.6 11.7 16.9 11.7 28.1v353.4c0 10.7-3.9 19.9-11.7 27.5s-17 11.4-27.8 11.4h-291.2c-11.1 0-20.5-3.8-28.1-11.4s-11.4-16.8-11.4-27.5v-27.2h-25.5c-11.1 0-20.5-3.9-28.1-11.7s-11.4-17-11.4-27.8v-353.4c0-11.1 3.8-20.5 11.4-28.1s16.9-11.4 28.1-11.4h291.2c10.7 0 20 3.8 27.8 11.4s11.7 16.9 11.7 28.1v27.2h25.6c10.6.1 19.9 3.9 27.7 11.4zm-397 327.3c3.5 3.5 7.9 5.3 13.1 5.3h291.2c4.8 0 9-1.8 12.5-5.3s5.3-7.7 5.3-12.5v-353.4c0-5.2-1.8-9.5-5.3-13.1-3.5-3.5-7.7-5.3-12.5-5.3h-291.7c-4.8 0-9 1.8-12.5 5.3s-5.3 7.9-5.3 13.1v353.4c-.1 4.8 1.6 9 5.2 12.5zm31.9-267.5c-3 0-5.5-1.1-7.5-3.3s-3.1-4.8-3.1-7.8 1-5.5 3.1-7.5c2-2 4.5-3.1 7.5-3.1h248.4c3 0 5.5 1 7.5 3.1 2 2 3.1 4.5 3.1 7.5s-1 5.6-3.1 7.8c-2 2.2-4.5 3.3-7.5 3.3zm0 88.9c-3 0-5.5-1-7.5-3.1-2-2-3.1-4.5-3.1-7.5s1-5.5 3.1-7.5c2-2 4.5-3.1 7.5-3.1h248.4c3 0 5.5 1 7.5 3.1 2 2 3.1 4.5 3.1 7.5s-1 5.5-3.1 7.5c-2 2-4.5 3.1-7.5 3.1zm255.9 85.8c-2 2-4.5 3.1-7.5 3.1h-248.4c-3 0-5.5-1-7.5-3.1-2-2-3.1-4.5-3.1-7.5s1-5.5 3.1-7.5c2-2 4.5-3.1 7.5-3.1h248.4c3 0 5.5 1 7.5 3.1 2 2 3.1 4.5 3.1 7.5s-1.1 5.5-3.1 7.5zm99.2 147v-354c0-4.8-1.7-9-5-12.5s-7.6-5.3-12.8-5.3h-25.6v305.1c0 10.7-3.9 20-11.7 27.8s-17 11.7-27.8 11.7h-244.5v27.2c0 4.8 1.8 9 5.3 12.5s7.9 5.3 13.1 5.3h291.2c5.2 0 9.5-1.8 13.1-5.3 3.5-3.5 5.3-7.7 5.3-12.5z"></path></g></svg>