<svg clip-rule="evenodd" fill-rule="evenodd" stroke-linejoin="round" stroke-miterlimit="2" viewBox="0 0 24 24" xmlns="http://www.w3.org/2000/svg" id="fi_17234975"><g transform="translate(-102 -10)"><g transform="matrix(1.584 0 0 1.577 -66.538 -7.324)"><path d="m113.369 18.829c-1.705-.299-3-1.789-3-3.579 0-2.005 1.626-3.634 3.631-3.634s3.631 1.629 3.631 3.634c0 1.79-1.295 3.28-3 3.579v6.734h-1.262zm.631-5.945c-1.307 0-2.369 1.059-2.369 2.366s1.062 2.366 2.369 2.366 2.369-1.059 2.369-2.366-1.062-2.366-2.369-2.366zm0 1.902h-.631v-1.268h.631c.955 0 1.73.777 1.73 1.732v.634h-1.263v-.634c0-.257-.21-.464-.467-.464z"></path></g></g></svg>